<svg width="45" height="24" viewBox="0 0 45 24" fill="none" xmlns="http://www.w3.org/2000/svg">
<rect y="0.879883" width="44.08" height="22.5" rx="3.5" fill="#00A500"/>
<g clip-path="url(#clip0_2475_77)">
<path d="M11.9674 10.6299H13.7174V17.6299H11.9674C11.6452 17.6299 11.384 17.3687 11.384 17.0465V11.2132C11.384 10.891 11.6452 10.6299 11.9674 10.6299ZM15.0549 9.87568L18.7885 6.14207C18.8911 6.03943 19.0536 6.02789 19.1697 6.11498L19.6671 6.48798C19.9498 6.70004 20.0772 7.06136 19.99 7.40385L19.3172 10.0465H23.0507C23.695 10.0465 24.2174 10.5689 24.2174 11.2132V12.4407C24.2174 12.5931 24.1875 12.7441 24.1295 12.8849L22.3244 17.2686C22.2344 17.4872 22.0214 17.6299 21.785 17.6299H15.4674C15.1452 17.6299 14.884 17.3687 14.884 17.0465V10.2882C14.884 10.1334 14.9455 9.98508 15.0549 9.87568Z" fill="white"/>
</g>
<path opacity="0.5" d="M30.4321 10.9329C30.6561 10.8862 30.8708 10.8535 31.0761 10.8349C31.2814 10.8115 31.4798 10.7999 31.6711 10.7999C32.2031 10.7999 32.6721 10.8792 33.0781 11.0379C33.4841 11.1965 33.8248 11.4159 34.1001 11.6959C34.3754 11.9759 34.5831 12.3049 34.7231 12.6829C34.8631 13.0562 34.9331 13.4599 34.9331 13.8939C34.9331 14.4305 34.8374 14.9205 34.6461 15.3639C34.4594 15.8072 34.1981 16.1875 33.8621 16.5049C33.5261 16.8175 33.1271 17.0602 32.6651 17.2329C32.2078 17.4055 31.7084 17.4919 31.1671 17.4919C30.8498 17.4919 30.5488 17.4592 30.2641 17.3939C29.9794 17.3285 29.7111 17.2422 29.4591 17.1349C29.2118 17.0229 28.9808 16.8969 28.7661 16.7569C28.5561 16.6122 28.3671 16.4605 28.1991 16.3019L28.7311 15.5669C28.8431 15.4082 28.9901 15.3289 29.1721 15.3289C29.2888 15.3289 29.4078 15.3662 29.5291 15.4409C29.6504 15.5155 29.7881 15.5972 29.9421 15.6859C30.1008 15.7745 30.2851 15.8562 30.4951 15.9309C30.7098 16.0055 30.9664 16.0429 31.2651 16.0429C31.5824 16.0429 31.8624 15.9915 32.1051 15.8889C32.3478 15.7862 32.5484 15.6439 32.7071 15.4619C32.8704 15.2752 32.9918 15.0559 33.0711 14.8039C33.1551 14.5472 33.1971 14.2695 33.1971 13.9709C33.1971 13.4202 33.0361 12.9909 32.7141 12.6829C32.3968 12.3702 31.9254 12.2139 31.3001 12.2139C30.8194 12.2139 30.3271 12.3025 29.8231 12.4799L28.7451 12.1719L29.5851 7.25788H34.5831V7.99288C34.5831 8.24022 34.5061 8.44088 34.3521 8.59488C34.1981 8.74888 33.9368 8.82588 33.5681 8.82588H30.7891L30.4321 10.9329Z" fill="white"/>
<defs>
<clipPath id="clip0_2475_77">
<rect width="14" height="14" fill="white" transform="translate(10.8 5.37988)"/>
</clipPath>
</defs>
</svg>
