<?xml version="1.0" standalone="no"?>
<!DOCTYPE svg PUBLIC "-//W3C//DTD SVG 20010904//EN"
 "http://www.w3.org/TR/2001/REC-SVG-20010904/DTD/svg10.dtd">
<svg version="1.0" xmlns="http://www.w3.org/2000/svg"
 width="370.000000pt" height="300.000000pt" viewBox="0 0 370.000000 300.000000"
 preserveAspectRatio="xMidYMid meet">
<metadata>
Created by potrace 1.16, written by Peter Selinger 2001-2019
</metadata>
<g transform="translate(0.000000,300.000000) scale(0.100000,-0.100000)"
fill="#000000" stroke="none">
<path d="M2851 2978 c6 -11 17 -17 25 -14 8 3 13 2 9 -3 -3 -5 8 -21 25 -34
37 -32 40 -46 4 -18 -15 12 -30 21 -33 21 -8 0 133 -146 146 -151 4 -2 18 -16
31 -31 21 -23 22 -26 5 -25 -11 1 -17 -4 -15 -13 2 -8 6 -35 9 -60 2 -25 13
-54 23 -65 10 -11 20 -33 22 -50 3 -16 9 -39 13 -49 6 -14 5 -17 -3 -12 -8 4
-12 1 -12 -10 0 -10 -21 -83 -46 -163 -36 -114 -56 -159 -91 -208 -47 -67
-117 -130 -195 -179 -51 -31 -59 -43 -30 -46 33 -3 106 7 135 17 9 4 23 2 31
-4 7 -6 16 -8 19 -4 7 7 10 -9 8 -42 -2 -20 -1 -20 14 -1 8 11 15 16 15 12 0
-19 -86 -158 -102 -164 -4 -2 -8 -8 -8 -14 0 -10 10 -5 150 82 47 29 95 56
108 61 12 5 22 16 22 24 0 9 4 14 8 11 5 -3 8 3 8 12 0 51 5 82 13 82 5 0 7
-21 5 -47 l-4 -48 13 35 c6 19 15 40 19 46 4 5 10 45 14 87 4 43 9 75 11 73 3
-2 4 -50 4 -105 l-1 -100 45 22 c25 12 45 29 46 37 0 9 3 10 5 4 3 -7 13 -10
23 -7 14 3 22 -3 29 -24 10 -28 10 -28 11 10 1 21 5 36 9 33 5 -3 8 41 7 97
-3 169 -4 189 -15 182 -5 -3 -10 2 -11 12 0 12 -5 8 -14 -12 -7 -16 -11 -34
-7 -39 3 -5 0 -6 -6 -2 -7 4 -7 17 0 44 14 49 4 248 -14 270 -9 11 -10 14 0 8
13 -8 15 27 2 79 l-7 30 -8 -28 c-4 -15 -5 -36 -2 -46 6 -23 -19 -171 -31
-183 -5 -5 -7 6 -6 24 l3 33 -10 -35 c-43 -144 -62 -195 -85 -230 -18 -27 -31
-37 -37 -31 -7 7 -6 15 3 26 7 8 10 18 7 22 -3 3 0 18 8 34 8 15 15 39 15 52
0 12 4 27 10 33 5 5 12 23 14 39 2 17 8 50 14 75 14 63 13 218 -2 233 -6 7
-13 26 -14 42 -5 70 -35 199 -58 253 l-25 58 -96 3 c-82 2 -95 0 -85 -12 7 -8
8 -17 4 -21 -4 -4 -2 -6 4 -4 6 2 43 -26 81 -62 39 -36 79 -70 89 -76 11 -7
16 -15 12 -19 -4 -4 -62 37 -130 91 -120 97 -170 124 -147 82z"/>
<path d="M1387 2708 c-3 -13 -11 -43 -17 -67 -20 -80 22 -131 94 -115 39 8 46
19 46 74 0 54 -3 58 -59 98 -52 38 -57 39 -64 10z"/>
<path d="M2640 2666 c-6 -6 -10 -7 -10 -2 0 4 -6 1 -12 -6 -38 -41 -49 -96
-25 -116 7 -6 28 -9 46 -7 19 2 42 0 52 -5 11 -7 20 -7 24 0 3 5 12 7 20 4 8
-3 19 4 26 18 7 12 18 28 25 35 16 17 7 49 -20 66 -26 18 -113 26 -126 13z"/>
<path d="M361 2653 l-44 -4 8 -192 c5 -106 8 -208 8 -227 -4 -218 -2 -501 2
-513 4 -9 23 -17 48 -20 57 -6 217 11 233 24 7 6 24 30 37 52 13 23 43 75 66
114 35 59 41 78 36 103 -9 42 -26 33 -39 -20 -17 -67 -34 -71 -95 -19 -28 24
-51 50 -51 58 0 8 -3 11 -7 8 -11 -12 -43 25 -43 50 0 14 -6 23 -15 23 -8 0
-15 5 -15 11 0 5 5 7 10 4 6 -4 17 -1 25 5 8 7 25 10 38 6 20 -5 27 1 44 32
27 50 35 86 24 114 -5 13 -15 104 -21 203 -8 111 -17 183 -24 187 -11 8 -143
8 -225 1z"/>
<path d="M725 2415 l0 -245 37 -20 c65 -34 96 -22 65 25 -32 48 -42 111 -42
255 0 80 3 164 6 188 l6 42 -36 0 -36 0 0 -245z"/>
<path d="M2267 2590 c-3 -25 -8 -67 -11 -95 l-5 -50 11 43 c12 45 34 56 41 20
l4 -23 2 23 c1 24 21 31 21 7 0 -22 62 -19 90 3 19 16 21 22 11 40 -7 12 -9
28 -5 34 4 6 3 8 -3 5 -6 -4 -13 0 -17 8 -4 10 -19 15 -48 14 -36 -1 -39 -2
-18 -9 23 -7 23 -8 3 -9 -12 -1 -29 -8 -37 -17 -17 -16 -21 -13 -28 31 -2 11
-7 0 -11 -25z"/>
<path d="M1963 2566 c-6 -23 -19 -70 -28 -106 -22 -81 -77 -181 -131 -235 -40
-41 -83 -61 -219 -102 -51 -15 -60 -21 -57 -40 2 -12 -2 -24 -8 -28 -6 -3 -8
-11 -5 -16 6 -9 -22 -14 -55 -11 -8 1 -23 3 -34 4 -24 3 -39 44 -32 86 3 18 1
44 -4 58 -22 56 -68 10 -104 -105 -23 -73 -36 -144 -71 -386 -9 -60 -18 -123
-21 -140 -4 -30 -4 -30 15 -10 20 20 45 145 58 285 6 71 49 236 71 274 29 50
37 41 38 -41 1 -186 18 -552 26 -547 4 3 8 14 8 24 0 10 18 57 41 103 38 80
51 94 210 246 93 88 176 161 183 161 7 0 21 -9 32 -21 16 -18 19 -37 19 -123
-1 -66 -7 -121 -18 -159 -17 -54 -21 -59 -65 -78 -26 -11 -56 -28 -66 -37 -32
-29 -76 -94 -76 -114 0 -27 18 -22 34 11 26 49 91 93 147 99 45 4 49 3 60 -22
10 -22 10 -35 -4 -74 -22 -60 -21 -72 1 -72 41 0 56 140 22 196 l-21 33 26
125 c24 111 25 127 12 153 -24 48 -36 116 -38 209 -1 111 8 165 31 171 26 7
66 77 86 150 17 64 17 66 -2 79 -10 8 -26 20 -35 28 -14 11 -17 8 -26 -28z"/>
<path d="M1617 2557 c-13 -20 -14 -32 -5 -63 5 -21 18 -44 27 -51 25 -20 85
-16 115 8 30 24 33 37 9 46 -37 13 -44 25 -26 39 26 19 4 36 -55 42 -43 4 -50
2 -65 -21z"/>
<path d="M2298 2208 c-3 -29 0 -52 18 -146 3 -14 9 -20 16 -16 6 4 8 3 5 -3
-4 -6 -4 -24 -1 -41 5 -23 10 -28 25 -25 10 3 19 1 20 -3 0 -5 1 -36 3 -69 2
-80 42 -188 67 -182 19 5 38 -25 20 -31 -6 -2 -11 -10 -11 -18 0 -9 5 -12 10
-9 6 3 10 2 10 -3 0 -13 60 -40 86 -38 23 1 84 49 84 66 0 6 8 22 17 36 14 22
14 27 2 35 -20 13 -29 11 -23 -5 6 -15 -22 -30 -38 -20 -6 4 -8 28 -5 60 l6
54 -58 0 c-75 0 -82 8 -141 163 -54 142 -92 227 -102 227 -4 0 -8 -15 -10 -32z"/>
<path d="M2425 2180 c-7 -12 -2 -66 8 -78 5 -7 7 -15 4 -19 -4 -3 -2 -13 3
-23 10 -18 66 -25 75 -9 4 5 15 9 26 9 11 0 22 7 25 15 3 8 26 26 51 41 25 14
41 30 36 35 -25 25 -216 50 -228 29z"/>
<path d="M525 1594 c-5 -1 -49 -6 -97 -9 l-88 -7 0 -101 c0 -56 3 -119 6 -140
6 -35 7 -36 23 -18 9 10 31 26 49 35 26 13 43 38 84 121 49 97 55 129 23 119z"/>
<path d="M66 566 c-44 -14 -52 -26 -38 -53 7 -12 5 -24 -7 -42 -22 -34 -23
-154 -1 -145 8 4 39 9 67 12 33 3 50 8 46 15 -4 7 0 8 12 3 14 -5 15 -4 7 6
-7 9 -7 18 3 31 9 12 14 14 17 6 7 -20 27 -1 53 50 14 30 33 51 46 54 21 6 21
7 7 29 -22 33 -151 54 -212 34z"/>
<path d="M1068 358 c-9 -7 -35 -41 -58 -76 -41 -60 -64 -72 -58 -29 1 12 -2
22 -7 23 -20 2 -64 -18 -62 -29 3 -16 -113 -49 -148 -41 -27 6 -100 54 -181
120 -24 18 -39 23 -58 18 l-25 -6 29 -31 c32 -34 37 -56 19 -88 -7 -14 -16
-18 -30 -14 -13 4 -19 2 -19 -9 0 -9 6 -13 14 -10 8 3 52 -4 98 -16 75 -20 91
-21 168 -10 47 6 130 17 184 24 90 12 102 16 123 42 19 22 23 37 19 64 -4 26
0 40 16 57 16 17 18 23 7 23 -9 0 -22 -6 -31 -12z"/>
</g>
</svg>
